<svg xmlns="http://www.w3.org/2000/svg" viewBox="0 0 957 869" width="957" height="869">
	<defs>
		<clipPath clipPathUnits="userSpaceOnUse" id="cp1">
			<path d="M0 0L957 0L957 869L0 869Z" />
		</clipPath>
	</defs>
	<style>
		tspan { white-space:pre }
		.shp0 { fill: #1fba0a } 
	</style>
	<g id="Page 1" clip-path="url(#cp1)">
		<path id="Path 1" class="shp0" d="M35.42,70.94h101.53l144.62,522.99c4.13,15.35 18.3,25.97 34.24,25.97h444.48c14.17,0 26.56,-8.26 32.46,-21.25l161.74,-371.87c4.72,-11.21 3.54,-23.61 -2.95,-33.65c-6.49,-10.04 -17.71,-15.94 -29.51,-15.94h-491.11c-19.48,0 -35.42,15.94 -35.42,35.42c0,19.48 15.94,35.42 35.42,35.42h436.81l-131.04,301.04h-394.31l-144.62,-522.99c-4.13,-15.35 -18.3,-25.97 -34.24,-25.97h-128.09c-19.48,0 -35.42,15.94 -35.42,35.42c0,19.48 15.94,35.42 35.42,35.42zM282.15,869c44.27,0 80.28,-36.01 80.28,-80.28c0,-44.27 -36.01,-80.28 -80.28,-80.28c-44.27,0 -80.28,36 -80.28,80.28c0,44.27 36.01,80.28 80.28,80.28zM783.89,869h5.9c21.25,-1.77 40.73,-11.21 54.9,-27.74c14.16,-15.94 20.66,-36.6 19.48,-58.44c-2.95,-43.68 -41.32,-77.33 -85.59,-74.38c-44.27,2.95 -77.33,41.91 -74.38,85.59c2.95,41.91 37.78,74.97 79.69,74.97z" />
	</g>
</svg>