<svg xmlns="http://www.w3.org/2000/svg" viewBox="0 0 118 118" width="118" height="118">
	<style>
		tspan { white-space:pre }
		.shp0 { fill: #1fba0a } 
	</style>
	<g id="_x30_606-turner-knife">
		<g id="Layer">
			<path id="Layer" class="shp0" d="M116.6,12.5c-0.2,0 -0.2,0.4 -0.2,0.7c-0.7,1 -1.3,2.3 -2.2,3.2c-1,2.9 -2.5,5.4 -3.9,8.1c-2,4 -4.2,8 -6.2,11.9c-0.4,0.8 -0.8,1.7 -1.2,2.5c-0.1,0.2 -0.1,0.5 -0.2,0.7c-0.1,0.1 -0.5,0.1 -0.5,0.2c-0.2,0.3 -0.3,0.6 -0.5,1c-0.2,0.2 -0.4,0.5 -0.5,0.7c-0.1,0.1 -0.1,0.5 -0.2,0.7c-0.1,0 -0.5,0.1 -0.5,0.2c-0.2,0.4 -0.2,0.6 -0.5,1c-0.8,1.2 -1.8,2.6 -2.7,4c-5.8,10.2 -12.4,19.6 -19,28.9c0.6,1.5 2.3,1.8 3,3.2c1.3,0.8 2.3,1.9 3.2,3c1.6,0.2 2.5,1.2 3.9,1.7c1.3,0.6 2.4,1.4 3.7,2c2.3,1.4 4.8,2.6 6.9,4.2c2.4,1.3 4.6,2.8 6.2,4.9c0.8,1.1 2.3,1.5 3,2.7c0.8,1 1.3,2.3 2.2,3.2c0.1,2 0.9,3.4 0.7,5.7c-0.6,2.9 -2,5 -4.2,6.4c-1,0.6 -1.3,-0.4 -2.5,-0.2c-0.9,0.5 -2.1,0.8 -3.7,0.7c-3,-0.7 -4.8,-2.6 -7.2,-3.9c-1.1,-1.3 -2.4,-2.5 -3.5,-3.7c-0.1,-1.1 -1.1,-1.4 -1.2,-2.5c-0.6,-0.6 -0.9,-1.6 -1.5,-2.2c-0.5,-1.8 -1.7,-3.1 -2.2,-4.9c-1.9,-2.9 -3.5,-6 -5.4,-8.9c-1.2,-1.5 -2.7,-2.8 -4.2,-4.2c-0.5,-0.4 -0.7,-1.2 -1.5,-1.2c-2.5,2.8 -4.2,6.6 -8.1,8.1c-2.1,-0.2 -2.9,-1.7 -4.4,-2.5c-0.5,-0.6 -1.5,-0.7 -1.7,-1.7c-0.8,-0.3 -1.5,-0.7 -2.2,-1.2c-1.3,0.6 -1.4,2.4 -2.2,3.5c-1.3,0.8 -1.6,2.5 -3.2,3c-0.8,1.1 -1.7,2.3 -2.7,3.2c-0.8,1.1 -1.8,2.1 -2.7,3.2c-0.3,0.7 -1,1 -1.5,1.5c-0.5,0.5 -0.8,1.2 -1.5,1.5c-1.8,2.1 -3.5,4.4 -5.4,6.4c-0.2,0.7 -0.8,1.2 -1.2,1.7c-0.5,0.6 -0.7,1.3 -1.5,1.5c-0.8,1.3 -2.2,1.8 -3.5,2.5h-3c-1.1,-0.1 -1.7,-0.8 -2.7,-1c-1.4,-1 -2.5,-2.2 -3.5,-3.5c-1.3,-0.8 -2.1,-2.2 -2.7,-3.9c0,-1.4 0,-2.7 0.5,-3.5v-0.5c0.5,-0.9 1.8,-1 2.5,-1.7c1,-1.8 2.4,-3.2 4,-4.4c1.3,-1.4 2.4,-3 4,-4.2c0.1,-1.3 1.5,-1.3 1.7,-2.5c0.8,-0.5 1.4,-1.3 2,-2c1.4,-1.4 2.4,-3 4,-4.2c5.3,-5.7 11,-10.9 16.8,-16.3c-0.2,-1.1 -1.3,-1.3 -1.7,-2.2c-0.9,-0.5 -1.1,-1.6 -2,-2c-1.2,-1.3 -2.4,-2.7 -3.7,-3.9c-5.1,-0.1 -8.6,1.5 -13.1,2c-0.8,0.5 -1.9,0.5 -2.5,1.2c-0.9,0.3 -1.8,0.5 -2.5,1c-2,0 -3.7,0.4 -5.9,0.2c-1.7,-0.5 -2.4,-1.9 -3.5,-3c-5.3,-5 -10.6,-10 -15.6,-15.3c-0.8,-1.3 -2,-2.2 -2.7,-3.5c-1.1,-1 -2.2,-1.9 -2.5,-3.7c-0.2,-1.4 0.8,-1.7 1.2,-2.5c0.5,-0.7 0.8,-1.6 1.7,-2c0.2,-1 1,-1.4 1.7,-2c0.4,-0.7 1,-1.2 1.7,-1.7c2.1,-2.6 5,-4.5 7.4,-6.9c2.3,-2.6 4.4,-5.2 7.2,-7.2c1,-1.4 2.5,-2.3 3.5,-3.7c1.4,-1 2.4,-2.4 4.2,-3c1.6,0.1 2.3,1.2 3.7,1.5c0.6,1.2 1.8,1.6 2.7,2.5c0.7,1.1 1.9,1.5 2.7,2.5c4.1,4.3 8.3,8.5 12.1,13.1c0.6,2.5 1.3,5 2.2,7.2c-0.3,2.6 -0.2,5.6 -0.2,8.6c0.3,3.3 1.7,6.8 1.2,10.1c2.3,2.6 5,4.7 7.4,7.2c4.7,-4.5 9.5,-8.7 14.1,-13.3c4.6,-4.5 8.2,-10 12.8,-14.6c1.2,-1.2 2.4,-2.3 3.5,-3.5c0.8,-0.9 1.7,-1.7 2.5,-2.7c0.2,-0.3 0.5,-0.4 0.7,-0.7c0.6,-0.6 1,-1.4 1.5,-2c0.5,-0.6 1.2,-1.1 1.7,-1.7c1.1,-1.2 2,-2.5 3,-3.7c3.6,-5.4 7.9,-10.1 13.8,-13.3c0.4,0.1 0.4,-0.2 0.7,-0.2c1.8,-0.4 2.2,0.6 3,1.2c0.7,2.6 -0.7,4.6 -1.2,7.2zM32,50.7c-1.6,-3.8 -5.5,-5.4 -7.9,-8.4c-1.5,-1.2 -2.9,-2.6 -4,-4.2c-0.9,-0.5 -1.3,-1.5 -2.2,-2c-0.6,-0.8 -1.1,-1.7 -2.2,-2c-2.3,-0.1 -4,-0.8 -6.2,-1c0.2,1.8 -0.6,2.6 -0.7,4c0.3,1.1 1.3,1.5 2,2.2c2.2,2.4 4.4,4.6 6.7,6.7c1.3,1.6 3,2.8 4.4,4.2c1.7,1.3 2.8,3.1 4.7,4.2c1.3,-0.1 1.8,0.6 3,0.5c1.4,-0.8 2.4,-2 2.4,-4.2zM38.5,41.4c-5.5,-5.8 -10.9,-11.7 -16.5,-17.5h-0.6c-0.6,0.3 -1.4,0.4 -2,0.7h-1.2c-0.2,-0.2 -0.9,-0.6 -0.7,0.2c-0.7,0.2 0.3,0.6 0,1.2v1.7c4,5 8.4,9.6 13.3,13.8c0.9,0.7 1.6,1.4 2.5,2c0.8,0.7 1.4,1.8 2.7,2c1.1,-0.3 2.2,-0.6 3,-1.2c0.2,-1.3 -0.5,-1.8 -0.5,-2.9zM46.2,30.7c-3.7,-4 -7.8,-7.6 -11.6,-11.4c0,-0.7 -0.5,-1.1 -0.7,-1.7c-2,-0.9 -3.6,-2.2 -5.7,-3c-1,0.3 -1.4,1 -2,1.7c0.3,1.8 1.1,4.1 0.7,5.9c2.3,2.3 4.7,4.4 6.9,6.9c1.5,0.9 2.1,2.6 3.5,3.5c0.4,0.7 1,1.2 1.7,1.7c0,0.5 0.6,0.5 0.7,1c0.7,-0.1 0.2,0.9 1,0.7c1.5,-0.5 3.4,-0.7 5.2,-1c0.6,-1.1 0.2,-3.1 0.3,-4.3zM47.6,51.5c0,-0.4 0.1,-0.9 -0.2,-1c0.1,0.7 -0.9,0.2 -0.7,1zM34.2,103.8c-1.5,-1.5 -2.8,-3.3 -3.9,-5.2c-0.3,0 -0.3,-0.3 -0.7,-0.2c0,0.3 -0.3,0.5 -0.2,1c1.1,0.6 1.5,1.9 2.5,2.5c0.3,0.5 0.7,0.9 1.2,1.2c0.2,0.3 0.9,1.4 1.1,0.7zM51.1,78.9c-0.7,-0.3 -1,-1.1 -2,-1c-0.1,0.3 -0.4,0.4 -0.5,0.7c-0.8,0.6 -1.4,1.2 -2,2c-0.8,0.6 -1.5,1.1 -2,2c-0.7,0 -0.6,0.7 -1,1c-0.4,0.2 -0.8,0.6 -1,1c-0.9,0.5 -1.3,1.5 -2.2,2c-1.1,1.5 -2.4,2.9 -3.7,4.2c-1.1,1.6 -2.7,2.7 -3.7,4.4c1.2,1.4 2,3.1 3.5,4.2c-0.4,-1.6 -1.9,-2.1 -1.7,-4.4c0.3,-0.1 0.4,-0.4 0.7,-0.5c1.6,-0.4 1.8,0.7 3,0.7c0.4,-0.8 0.9,-1.6 0.7,-3c0.5,-0.4 1.4,-0.4 2,-0.7c2.4,-3.2 5.2,-6 7.4,-9.4c1.1,-0.9 2.2,-1.6 2.5,-3.2zM52.6,84.4c-0.8,-0.1 -0.9,0.6 -1,1.2c-0.2,-0.1 -0.2,0.1 -0.2,0.2c-0.2,-0.1 -0.2,0 -0.2,0.2c-0.4,0.2 0,0.3 0,0c0.2,0.1 0.2,0 0.2,-0.2c0.2,0.1 0.2,0 0.2,-0.2c0.4,-0.4 1,-0.5 1,-1.2zM103.7,101.1c0.4,0.6 -0.1,2.2 1,2.2c0.5,-0.7 -0.1,-2.1 -1,-2.2zM99.3,97.6c0,0.7 0.5,1.1 0.7,1.7c0.5,-0.1 1.5,0.3 1.5,-0.2c-0.7,-0.5 -1.4,-1.1 -2.2,-1.5zM97.6,105.5c-0.1,0.6 0.3,0.8 0.7,1c0,-0.6 -0.1,-1 -0.7,-1zM113.3,12.8c0,-0.3 -0.1,-0.6 -0.5,-0.5c-3,3 -5.8,6.2 -9.1,8.9c-1.3,2.1 -2.9,3.9 -4.4,5.9c-0.9,0.8 -1.8,1.7 -2.5,2.7c-0.4,0.5 -0.6,1.2 -1.2,1.5c0.1,0.9 -1.1,0.7 -1,1.7c-1.4,0.5 -1.8,1.9 -3,2.5c-0.7,1.2 -1.7,2.1 -2.5,3.2c-1.7,2 -3.4,4.2 -4.9,6.4c-1.7,2 -3.4,4 -5.2,5.9c-1.7,2.1 -4,3.6 -5.2,6.2c-1.7,1.3 -2.9,3.1 -4.7,4.2c-0.5,0.9 -1.5,1.4 -2.2,2.2c-0.7,0.8 -1.3,1.6 -2.2,2.2c-1.5,1.3 -3,2.8 -4.4,4.4c-1,0.4 -1.2,1.7 -2.2,2.2c-0.6,1 -1.7,1.4 -2,2.7c1.2,1.8 3,3 4.4,4.7c0.8,0.7 1.8,1.4 2.5,2.2c1.2,0.4 1.8,1.3 3,1.7c2.9,-4.6 6.3,-8.8 9.4,-13.1c3.3,-4.1 6.6,-8.3 9.6,-12.8c2.7,-4.8 6.5,-8.6 9.4,-13.1c1.7,-2.1 2.9,-4.7 4.2,-7.2c1.1,-2.7 3,-4.6 3.7,-7.7c0.8,-0.8 1.5,-1.7 2.2,-2.5c0.2,-1.7 0.9,-3.1 1.7,-4.2c0.7,-1.3 1.1,-2.8 2.2,-3.7c0.4,-1.5 1.5,-2.4 2.2,-3.7c1.1,-0.9 1.6,-2.4 2.7,-2.9zM65.9,70.3c0,0.1 0,0.2 -0.2,0.2c0,-0.2 0,-0.3 0.2,-0.2z" />
		</g>
	</g>
</svg>